<mxfile host="app.diagrams.net" modified="2022-09-21T01:37:13.715Z" agent="5.0 (Windows NT 10.0; Win64; x64) AppleWebKit/537.36 (KHTML, like Gecko) Chrome/83.0.4103.97 Safari/537.36" etag="hEAJ3bkKQFf-WX1WfUB0" version="20.2.7" type="github">
  <diagram id="z7bG9_cL0WjyzCiolIdL" name="第 1 页">
    <mxGraphModel dx="3552" dy="1542" grid="1" gridSize="10" guides="1" tooltips="1" connect="1" arrows="1" fold="1" page="1" pageScale="1" pageWidth="827" pageHeight="1169" math="0" shadow="0">
      <root>
        <mxCell id="0" />
        <mxCell id="1" parent="0" />
        <mxCell id="LvxEn_jjEC13x24jMexa-1" value="1" style="ellipse;whiteSpace=wrap;html=1;aspect=fixed;fontSize=25;" vertex="1" parent="1">
          <mxGeometry x="820" y="70" width="60" height="60" as="geometry" />
        </mxCell>
        <mxCell id="LvxEn_jjEC13x24jMexa-2" value="0" style="ellipse;whiteSpace=wrap;html=1;aspect=fixed;fontSize=25;" vertex="1" parent="1">
          <mxGeometry x="-190" y="520" width="60" height="60" as="geometry" />
        </mxCell>
        <mxCell id="LvxEn_jjEC13x24jMexa-3" value="9" style="ellipse;whiteSpace=wrap;html=1;aspect=fixed;fontSize=25;" vertex="1" parent="1">
          <mxGeometry x="1450" y="320" width="60" height="60" as="geometry" />
        </mxCell>
        <mxCell id="LvxEn_jjEC13x24jMexa-4" value="7" style="ellipse;whiteSpace=wrap;html=1;aspect=fixed;fontSize=25;" vertex="1" parent="1">
          <mxGeometry x="1200" y="320" width="60" height="60" as="geometry" />
        </mxCell>
        <mxCell id="LvxEn_jjEC13x24jMexa-5" value="6" style="ellipse;whiteSpace=wrap;html=1;aspect=fixed;fontSize=25;" vertex="1" parent="1">
          <mxGeometry x="1080" y="320" width="60" height="60" as="geometry" />
        </mxCell>
        <mxCell id="LvxEn_jjEC13x24jMexa-6" value="0" style="ellipse;whiteSpace=wrap;html=1;aspect=fixed;fontSize=25;" vertex="1" parent="1">
          <mxGeometry x="190" y="320" width="60" height="60" as="geometry" />
        </mxCell>
        <mxCell id="LvxEn_jjEC13x24jMexa-7" value="8" style="ellipse;whiteSpace=wrap;html=1;aspect=fixed;fontSize=25;" vertex="1" parent="1">
          <mxGeometry x="1330" y="320" width="60" height="60" as="geometry" />
        </mxCell>
        <mxCell id="LvxEn_jjEC13x24jMexa-8" value="1" style="ellipse;whiteSpace=wrap;html=1;aspect=fixed;fontSize=25;" vertex="1" parent="1">
          <mxGeometry x="330" y="320" width="60" height="60" as="geometry" />
        </mxCell>
        <mxCell id="LvxEn_jjEC13x24jMexa-9" value="2" style="ellipse;whiteSpace=wrap;html=1;aspect=fixed;fontSize=25;" vertex="1" parent="1">
          <mxGeometry x="480" y="320" width="60" height="60" as="geometry" />
        </mxCell>
        <mxCell id="LvxEn_jjEC13x24jMexa-10" value="3" style="ellipse;whiteSpace=wrap;html=1;aspect=fixed;fontSize=25;" vertex="1" parent="1">
          <mxGeometry x="610" y="320" width="60" height="60" as="geometry" />
        </mxCell>
        <mxCell id="LvxEn_jjEC13x24jMexa-11" value="4" style="ellipse;whiteSpace=wrap;html=1;aspect=fixed;fontSize=25;" vertex="1" parent="1">
          <mxGeometry x="767" y="320" width="60" height="60" as="geometry" />
        </mxCell>
        <mxCell id="LvxEn_jjEC13x24jMexa-12" value="5" style="ellipse;whiteSpace=wrap;html=1;aspect=fixed;fontSize=25;" vertex="1" parent="1">
          <mxGeometry x="910" y="320" width="60" height="60" as="geometry" />
        </mxCell>
        <mxCell id="LvxEn_jjEC13x24jMexa-14" value="" style="endArrow=classic;html=1;rounded=0;fontSize=25;exitX=0;exitY=0.5;exitDx=0;exitDy=0;entryX=0.628;entryY=-0.009;entryDx=0;entryDy=0;entryPerimeter=0;" edge="1" parent="1" source="LvxEn_jjEC13x24jMexa-1" target="LvxEn_jjEC13x24jMexa-6">
          <mxGeometry width="50" height="50" relative="1" as="geometry">
            <mxPoint x="230" y="240" as="sourcePoint" />
            <mxPoint x="280" y="190" as="targetPoint" />
          </mxGeometry>
        </mxCell>
        <mxCell id="LvxEn_jjEC13x24jMexa-16" value="" style="endArrow=classic;html=1;rounded=0;fontSize=25;" edge="1" parent="1" source="LvxEn_jjEC13x24jMexa-1" target="LvxEn_jjEC13x24jMexa-8">
          <mxGeometry width="50" height="50" relative="1" as="geometry">
            <mxPoint x="770" y="120" as="sourcePoint" />
            <mxPoint x="237.68000000000006" y="329.46000000000004" as="targetPoint" />
          </mxGeometry>
        </mxCell>
        <mxCell id="LvxEn_jjEC13x24jMexa-17" value="" style="endArrow=classic;html=1;rounded=0;fontSize=25;entryX=1;entryY=0;entryDx=0;entryDy=0;" edge="1" parent="1" source="LvxEn_jjEC13x24jMexa-1" target="LvxEn_jjEC13x24jMexa-9">
          <mxGeometry width="50" height="50" relative="1" as="geometry">
            <mxPoint x="900" y="220" as="sourcePoint" />
            <mxPoint x="950" y="170" as="targetPoint" />
          </mxGeometry>
        </mxCell>
        <mxCell id="LvxEn_jjEC13x24jMexa-18" value="" style="endArrow=classic;html=1;rounded=0;fontSize=25;entryX=0.5;entryY=0;entryDx=0;entryDy=0;" edge="1" parent="1" source="LvxEn_jjEC13x24jMexa-1" target="LvxEn_jjEC13x24jMexa-11">
          <mxGeometry width="50" height="50" relative="1" as="geometry">
            <mxPoint x="860" y="230" as="sourcePoint" />
            <mxPoint x="910" y="180" as="targetPoint" />
          </mxGeometry>
        </mxCell>
        <mxCell id="LvxEn_jjEC13x24jMexa-19" value="" style="endArrow=classic;html=1;rounded=0;fontSize=25;" edge="1" parent="1" source="LvxEn_jjEC13x24jMexa-1" target="LvxEn_jjEC13x24jMexa-10">
          <mxGeometry width="50" height="50" relative="1" as="geometry">
            <mxPoint x="940" y="450" as="sourcePoint" />
            <mxPoint x="990" y="400" as="targetPoint" />
          </mxGeometry>
        </mxCell>
        <mxCell id="LvxEn_jjEC13x24jMexa-20" value="" style="endArrow=classic;html=1;rounded=0;fontSize=25;" edge="1" parent="1" source="LvxEn_jjEC13x24jMexa-1" target="LvxEn_jjEC13x24jMexa-12">
          <mxGeometry width="50" height="50" relative="1" as="geometry">
            <mxPoint x="980" y="190" as="sourcePoint" />
            <mxPoint x="1030" y="140" as="targetPoint" />
          </mxGeometry>
        </mxCell>
        <mxCell id="LvxEn_jjEC13x24jMexa-21" value="" style="endArrow=classic;html=1;rounded=0;fontSize=25;" edge="1" parent="1" source="LvxEn_jjEC13x24jMexa-1" target="LvxEn_jjEC13x24jMexa-5">
          <mxGeometry width="50" height="50" relative="1" as="geometry">
            <mxPoint x="1110" y="210" as="sourcePoint" />
            <mxPoint x="1160" y="160" as="targetPoint" />
          </mxGeometry>
        </mxCell>
        <mxCell id="LvxEn_jjEC13x24jMexa-22" value="" style="endArrow=classic;html=1;rounded=0;fontSize=25;" edge="1" parent="1" source="LvxEn_jjEC13x24jMexa-1" target="LvxEn_jjEC13x24jMexa-4">
          <mxGeometry width="50" height="50" relative="1" as="geometry">
            <mxPoint x="1200" y="230" as="sourcePoint" />
            <mxPoint x="1250" y="180" as="targetPoint" />
          </mxGeometry>
        </mxCell>
        <mxCell id="LvxEn_jjEC13x24jMexa-23" value="" style="endArrow=classic;html=1;rounded=0;fontSize=25;" edge="1" parent="1" source="LvxEn_jjEC13x24jMexa-1" target="LvxEn_jjEC13x24jMexa-7">
          <mxGeometry width="50" height="50" relative="1" as="geometry">
            <mxPoint x="1240" y="140" as="sourcePoint" />
            <mxPoint x="1290" y="90" as="targetPoint" />
          </mxGeometry>
        </mxCell>
        <mxCell id="LvxEn_jjEC13x24jMexa-24" value="" style="endArrow=classic;html=1;rounded=0;fontSize=25;entryX=0;entryY=0;entryDx=0;entryDy=0;" edge="1" parent="1" source="LvxEn_jjEC13x24jMexa-1" target="LvxEn_jjEC13x24jMexa-3">
          <mxGeometry width="50" height="50" relative="1" as="geometry">
            <mxPoint x="1180" y="180" as="sourcePoint" />
            <mxPoint x="1230" y="130" as="targetPoint" />
          </mxGeometry>
        </mxCell>
        <mxCell id="LvxEn_jjEC13x24jMexa-25" value="9" style="ellipse;whiteSpace=wrap;html=1;aspect=fixed;fontSize=25;" vertex="1" parent="1">
          <mxGeometry x="540" y="520" width="60" height="60" as="geometry" />
        </mxCell>
        <mxCell id="LvxEn_jjEC13x24jMexa-26" value="8" style="ellipse;whiteSpace=wrap;html=1;aspect=fixed;fontSize=25;" vertex="1" parent="1">
          <mxGeometry x="460" y="520" width="60" height="60" as="geometry" />
        </mxCell>
        <mxCell id="LvxEn_jjEC13x24jMexa-27" value="1" style="ellipse;whiteSpace=wrap;html=1;aspect=fixed;fontSize=25;" vertex="1" parent="1">
          <mxGeometry x="-100" y="520" width="60" height="60" as="geometry" />
        </mxCell>
        <mxCell id="LvxEn_jjEC13x24jMexa-28" value="2" style="ellipse;whiteSpace=wrap;html=1;aspect=fixed;fontSize=25;" vertex="1" parent="1">
          <mxGeometry x="-20" y="520" width="60" height="60" as="geometry" />
        </mxCell>
        <mxCell id="LvxEn_jjEC13x24jMexa-29" value="3" style="ellipse;whiteSpace=wrap;html=1;aspect=fixed;fontSize=25;" vertex="1" parent="1">
          <mxGeometry x="60" y="520" width="60" height="60" as="geometry" />
        </mxCell>
        <mxCell id="LvxEn_jjEC13x24jMexa-30" value="4" style="ellipse;whiteSpace=wrap;html=1;aspect=fixed;fontSize=25;" vertex="1" parent="1">
          <mxGeometry x="140" y="525" width="60" height="60" as="geometry" />
        </mxCell>
        <mxCell id="LvxEn_jjEC13x24jMexa-31" value="5" style="ellipse;whiteSpace=wrap;html=1;aspect=fixed;fontSize=25;" vertex="1" parent="1">
          <mxGeometry x="210" y="525" width="60" height="60" as="geometry" />
        </mxCell>
        <mxCell id="LvxEn_jjEC13x24jMexa-32" value="6" style="ellipse;whiteSpace=wrap;html=1;aspect=fixed;fontSize=25;" vertex="1" parent="1">
          <mxGeometry x="290" y="525" width="60" height="60" as="geometry" />
        </mxCell>
        <mxCell id="LvxEn_jjEC13x24jMexa-33" value="7" style="ellipse;whiteSpace=wrap;html=1;aspect=fixed;fontSize=25;" vertex="1" parent="1">
          <mxGeometry x="370" y="525" width="60" height="60" as="geometry" />
        </mxCell>
        <mxCell id="LvxEn_jjEC13x24jMexa-34" value="" style="endArrow=classic;html=1;rounded=0;fontSize=25;entryX=0.5;entryY=0;entryDx=0;entryDy=0;" edge="1" parent="1" source="LvxEn_jjEC13x24jMexa-6" target="LvxEn_jjEC13x24jMexa-2">
          <mxGeometry width="50" height="50" relative="1" as="geometry">
            <mxPoint x="-90" y="420" as="sourcePoint" />
            <mxPoint x="-40" y="370" as="targetPoint" />
          </mxGeometry>
        </mxCell>
        <mxCell id="LvxEn_jjEC13x24jMexa-35" value="" style="endArrow=classic;html=1;rounded=0;fontSize=25;entryX=0.5;entryY=0;entryDx=0;entryDy=0;" edge="1" parent="1" source="LvxEn_jjEC13x24jMexa-6" target="LvxEn_jjEC13x24jMexa-27">
          <mxGeometry width="50" height="50" relative="1" as="geometry">
            <mxPoint x="210" y="470" as="sourcePoint" />
            <mxPoint x="260" y="420" as="targetPoint" />
          </mxGeometry>
        </mxCell>
        <mxCell id="LvxEn_jjEC13x24jMexa-36" value="" style="endArrow=classic;html=1;rounded=0;fontSize=25;exitX=0.289;exitY=0.954;exitDx=0;exitDy=0;exitPerimeter=0;entryX=0.326;entryY=-0.046;entryDx=0;entryDy=0;entryPerimeter=0;" edge="1" parent="1" source="LvxEn_jjEC13x24jMexa-6" target="LvxEn_jjEC13x24jMexa-28">
          <mxGeometry width="50" height="50" relative="1" as="geometry">
            <mxPoint x="220" y="470" as="sourcePoint" />
            <mxPoint x="270" y="420" as="targetPoint" />
          </mxGeometry>
        </mxCell>
        <mxCell id="LvxEn_jjEC13x24jMexa-37" value="" style="endArrow=classic;html=1;rounded=0;fontSize=25;entryX=0.363;entryY=0.009;entryDx=0;entryDy=0;entryPerimeter=0;exitX=0.363;exitY=0.972;exitDx=0;exitDy=0;exitPerimeter=0;" edge="1" parent="1" source="LvxEn_jjEC13x24jMexa-6" target="LvxEn_jjEC13x24jMexa-29">
          <mxGeometry width="50" height="50" relative="1" as="geometry">
            <mxPoint x="180" y="420" as="sourcePoint" />
            <mxPoint x="310" y="430" as="targetPoint" />
          </mxGeometry>
        </mxCell>
        <mxCell id="LvxEn_jjEC13x24jMexa-38" value="" style="endArrow=classic;html=1;rounded=0;fontSize=25;exitX=0.5;exitY=1;exitDx=0;exitDy=0;entryX=0.5;entryY=0;entryDx=0;entryDy=0;" edge="1" parent="1" source="LvxEn_jjEC13x24jMexa-6" target="LvxEn_jjEC13x24jMexa-30">
          <mxGeometry width="50" height="50" relative="1" as="geometry">
            <mxPoint x="330" y="490" as="sourcePoint" />
            <mxPoint x="380" y="440" as="targetPoint" />
          </mxGeometry>
        </mxCell>
        <mxCell id="LvxEn_jjEC13x24jMexa-39" value="" style="endArrow=classic;html=1;rounded=0;fontSize=25;" edge="1" parent="1" source="LvxEn_jjEC13x24jMexa-6" target="LvxEn_jjEC13x24jMexa-31">
          <mxGeometry width="50" height="50" relative="1" as="geometry">
            <mxPoint x="380" y="470" as="sourcePoint" />
            <mxPoint x="430" y="420" as="targetPoint" />
          </mxGeometry>
        </mxCell>
        <mxCell id="LvxEn_jjEC13x24jMexa-40" value="" style="endArrow=classic;html=1;rounded=0;fontSize=25;entryX=0.5;entryY=0;entryDx=0;entryDy=0;exitX=0.733;exitY=0.991;exitDx=0;exitDy=0;exitPerimeter=0;" edge="1" parent="1" source="LvxEn_jjEC13x24jMexa-6" target="LvxEn_jjEC13x24jMexa-32">
          <mxGeometry width="50" height="50" relative="1" as="geometry">
            <mxPoint x="250" y="420" as="sourcePoint" />
            <mxPoint x="400" y="420" as="targetPoint" />
          </mxGeometry>
        </mxCell>
        <mxCell id="LvxEn_jjEC13x24jMexa-41" value="" style="endArrow=classic;html=1;rounded=0;fontSize=25;exitX=1;exitY=1;exitDx=0;exitDy=0;entryX=0.5;entryY=0;entryDx=0;entryDy=0;" edge="1" parent="1" source="LvxEn_jjEC13x24jMexa-6" target="LvxEn_jjEC13x24jMexa-33">
          <mxGeometry width="50" height="50" relative="1" as="geometry">
            <mxPoint x="350" y="470" as="sourcePoint" />
            <mxPoint x="400" y="420" as="targetPoint" />
          </mxGeometry>
        </mxCell>
        <mxCell id="LvxEn_jjEC13x24jMexa-42" value="" style="endArrow=classic;html=1;rounded=0;fontSize=25;entryX=0;entryY=0;entryDx=0;entryDy=0;" edge="1" parent="1" source="LvxEn_jjEC13x24jMexa-6" target="LvxEn_jjEC13x24jMexa-26">
          <mxGeometry width="50" height="50" relative="1" as="geometry">
            <mxPoint x="430" y="500" as="sourcePoint" />
            <mxPoint x="480" y="450" as="targetPoint" />
          </mxGeometry>
        </mxCell>
        <mxCell id="LvxEn_jjEC13x24jMexa-43" value="" style="endArrow=classic;html=1;rounded=0;fontSize=25;entryX=0.308;entryY=0.046;entryDx=0;entryDy=0;entryPerimeter=0;" edge="1" parent="1" source="LvxEn_jjEC13x24jMexa-6" target="LvxEn_jjEC13x24jMexa-25">
          <mxGeometry width="50" height="50" relative="1" as="geometry">
            <mxPoint x="540" y="500" as="sourcePoint" />
            <mxPoint x="590" y="450" as="targetPoint" />
          </mxGeometry>
        </mxCell>
        <mxCell id="LvxEn_jjEC13x24jMexa-44" value="2" style="ellipse;whiteSpace=wrap;html=1;aspect=fixed;fontSize=25;" vertex="1" parent="1">
          <mxGeometry x="2664" y="70" width="60" height="60" as="geometry" />
        </mxCell>
        <mxCell id="LvxEn_jjEC13x24jMexa-45" value="0" style="ellipse;whiteSpace=wrap;html=1;aspect=fixed;fontSize=25;" vertex="1" parent="1">
          <mxGeometry x="1654" y="520" width="60" height="60" as="geometry" />
        </mxCell>
        <mxCell id="LvxEn_jjEC13x24jMexa-46" value="9" style="ellipse;whiteSpace=wrap;html=1;aspect=fixed;fontSize=25;" vertex="1" parent="1">
          <mxGeometry x="3294" y="320" width="60" height="60" as="geometry" />
        </mxCell>
        <mxCell id="LvxEn_jjEC13x24jMexa-47" value="7" style="ellipse;whiteSpace=wrap;html=1;aspect=fixed;fontSize=25;" vertex="1" parent="1">
          <mxGeometry x="3044" y="320" width="60" height="60" as="geometry" />
        </mxCell>
        <mxCell id="LvxEn_jjEC13x24jMexa-48" value="6" style="ellipse;whiteSpace=wrap;html=1;aspect=fixed;fontSize=25;" vertex="1" parent="1">
          <mxGeometry x="2924" y="320" width="60" height="60" as="geometry" />
        </mxCell>
        <mxCell id="LvxEn_jjEC13x24jMexa-49" value="0" style="ellipse;whiteSpace=wrap;html=1;aspect=fixed;fontSize=25;" vertex="1" parent="1">
          <mxGeometry x="2034" y="320" width="60" height="60" as="geometry" />
        </mxCell>
        <mxCell id="LvxEn_jjEC13x24jMexa-50" value="8" style="ellipse;whiteSpace=wrap;html=1;aspect=fixed;fontSize=25;" vertex="1" parent="1">
          <mxGeometry x="3174" y="320" width="60" height="60" as="geometry" />
        </mxCell>
        <mxCell id="LvxEn_jjEC13x24jMexa-51" value="1" style="ellipse;whiteSpace=wrap;html=1;aspect=fixed;fontSize=25;" vertex="1" parent="1">
          <mxGeometry x="2174" y="320" width="60" height="60" as="geometry" />
        </mxCell>
        <mxCell id="LvxEn_jjEC13x24jMexa-52" value="2" style="ellipse;whiteSpace=wrap;html=1;aspect=fixed;fontSize=25;" vertex="1" parent="1">
          <mxGeometry x="2324" y="320" width="60" height="60" as="geometry" />
        </mxCell>
        <mxCell id="LvxEn_jjEC13x24jMexa-53" value="3" style="ellipse;whiteSpace=wrap;html=1;aspect=fixed;fontSize=25;" vertex="1" parent="1">
          <mxGeometry x="2454" y="320" width="60" height="60" as="geometry" />
        </mxCell>
        <mxCell id="LvxEn_jjEC13x24jMexa-54" value="4" style="ellipse;whiteSpace=wrap;html=1;aspect=fixed;fontSize=25;" vertex="1" parent="1">
          <mxGeometry x="2611" y="320" width="60" height="60" as="geometry" />
        </mxCell>
        <mxCell id="LvxEn_jjEC13x24jMexa-55" value="5" style="ellipse;whiteSpace=wrap;html=1;aspect=fixed;fontSize=25;" vertex="1" parent="1">
          <mxGeometry x="2754" y="320" width="60" height="60" as="geometry" />
        </mxCell>
        <mxCell id="LvxEn_jjEC13x24jMexa-56" value="" style="endArrow=classic;html=1;rounded=0;fontSize=25;exitX=0;exitY=0.5;exitDx=0;exitDy=0;entryX=0.628;entryY=-0.009;entryDx=0;entryDy=0;entryPerimeter=0;" edge="1" parent="1" source="LvxEn_jjEC13x24jMexa-44" target="LvxEn_jjEC13x24jMexa-49">
          <mxGeometry width="50" height="50" relative="1" as="geometry">
            <mxPoint x="2074" y="240" as="sourcePoint" />
            <mxPoint x="2124" y="190" as="targetPoint" />
          </mxGeometry>
        </mxCell>
        <mxCell id="LvxEn_jjEC13x24jMexa-57" value="" style="endArrow=classic;html=1;rounded=0;fontSize=25;" edge="1" parent="1" source="LvxEn_jjEC13x24jMexa-44" target="LvxEn_jjEC13x24jMexa-51">
          <mxGeometry width="50" height="50" relative="1" as="geometry">
            <mxPoint x="2614" y="120" as="sourcePoint" />
            <mxPoint x="2081.6800000000003" y="329.46000000000004" as="targetPoint" />
          </mxGeometry>
        </mxCell>
        <mxCell id="LvxEn_jjEC13x24jMexa-58" value="" style="endArrow=classic;html=1;rounded=0;fontSize=25;entryX=1;entryY=0;entryDx=0;entryDy=0;" edge="1" parent="1" source="LvxEn_jjEC13x24jMexa-44" target="LvxEn_jjEC13x24jMexa-52">
          <mxGeometry width="50" height="50" relative="1" as="geometry">
            <mxPoint x="2744" y="220" as="sourcePoint" />
            <mxPoint x="2794" y="170" as="targetPoint" />
          </mxGeometry>
        </mxCell>
        <mxCell id="LvxEn_jjEC13x24jMexa-59" value="" style="endArrow=classic;html=1;rounded=0;fontSize=25;entryX=0.5;entryY=0;entryDx=0;entryDy=0;" edge="1" parent="1" source="LvxEn_jjEC13x24jMexa-44" target="LvxEn_jjEC13x24jMexa-54">
          <mxGeometry width="50" height="50" relative="1" as="geometry">
            <mxPoint x="2704" y="230" as="sourcePoint" />
            <mxPoint x="2754" y="180" as="targetPoint" />
          </mxGeometry>
        </mxCell>
        <mxCell id="LvxEn_jjEC13x24jMexa-60" value="" style="endArrow=classic;html=1;rounded=0;fontSize=25;" edge="1" parent="1" source="LvxEn_jjEC13x24jMexa-44" target="LvxEn_jjEC13x24jMexa-53">
          <mxGeometry width="50" height="50" relative="1" as="geometry">
            <mxPoint x="2784" y="450" as="sourcePoint" />
            <mxPoint x="2834" y="400" as="targetPoint" />
          </mxGeometry>
        </mxCell>
        <mxCell id="LvxEn_jjEC13x24jMexa-61" value="" style="endArrow=classic;html=1;rounded=0;fontSize=25;" edge="1" parent="1" source="LvxEn_jjEC13x24jMexa-44" target="LvxEn_jjEC13x24jMexa-55">
          <mxGeometry width="50" height="50" relative="1" as="geometry">
            <mxPoint x="2824" y="190" as="sourcePoint" />
            <mxPoint x="2874" y="140" as="targetPoint" />
          </mxGeometry>
        </mxCell>
        <mxCell id="LvxEn_jjEC13x24jMexa-62" value="" style="endArrow=classic;html=1;rounded=0;fontSize=25;" edge="1" parent="1" source="LvxEn_jjEC13x24jMexa-44" target="LvxEn_jjEC13x24jMexa-48">
          <mxGeometry width="50" height="50" relative="1" as="geometry">
            <mxPoint x="2954" y="210" as="sourcePoint" />
            <mxPoint x="3004" y="160" as="targetPoint" />
          </mxGeometry>
        </mxCell>
        <mxCell id="LvxEn_jjEC13x24jMexa-63" value="" style="endArrow=classic;html=1;rounded=0;fontSize=25;" edge="1" parent="1" source="LvxEn_jjEC13x24jMexa-44" target="LvxEn_jjEC13x24jMexa-47">
          <mxGeometry width="50" height="50" relative="1" as="geometry">
            <mxPoint x="3044" y="230" as="sourcePoint" />
            <mxPoint x="3094" y="180" as="targetPoint" />
          </mxGeometry>
        </mxCell>
        <mxCell id="LvxEn_jjEC13x24jMexa-64" value="" style="endArrow=classic;html=1;rounded=0;fontSize=25;" edge="1" parent="1" source="LvxEn_jjEC13x24jMexa-44" target="LvxEn_jjEC13x24jMexa-50">
          <mxGeometry width="50" height="50" relative="1" as="geometry">
            <mxPoint x="3084" y="140" as="sourcePoint" />
            <mxPoint x="3134" y="90" as="targetPoint" />
          </mxGeometry>
        </mxCell>
        <mxCell id="LvxEn_jjEC13x24jMexa-65" value="" style="endArrow=classic;html=1;rounded=0;fontSize=25;entryX=0;entryY=0;entryDx=0;entryDy=0;" edge="1" parent="1" source="LvxEn_jjEC13x24jMexa-44" target="LvxEn_jjEC13x24jMexa-46">
          <mxGeometry width="50" height="50" relative="1" as="geometry">
            <mxPoint x="3024" y="180" as="sourcePoint" />
            <mxPoint x="3074" y="130" as="targetPoint" />
          </mxGeometry>
        </mxCell>
        <mxCell id="LvxEn_jjEC13x24jMexa-66" value="9" style="ellipse;whiteSpace=wrap;html=1;aspect=fixed;fontSize=25;" vertex="1" parent="1">
          <mxGeometry x="2384" y="520" width="60" height="60" as="geometry" />
        </mxCell>
        <mxCell id="LvxEn_jjEC13x24jMexa-67" value="8" style="ellipse;whiteSpace=wrap;html=1;aspect=fixed;fontSize=25;" vertex="1" parent="1">
          <mxGeometry x="2304" y="520" width="60" height="60" as="geometry" />
        </mxCell>
        <mxCell id="LvxEn_jjEC13x24jMexa-68" value="1" style="ellipse;whiteSpace=wrap;html=1;aspect=fixed;fontSize=25;" vertex="1" parent="1">
          <mxGeometry x="1744" y="520" width="60" height="60" as="geometry" />
        </mxCell>
        <mxCell id="LvxEn_jjEC13x24jMexa-69" value="2" style="ellipse;whiteSpace=wrap;html=1;aspect=fixed;fontSize=25;" vertex="1" parent="1">
          <mxGeometry x="1824" y="520" width="60" height="60" as="geometry" />
        </mxCell>
        <mxCell id="LvxEn_jjEC13x24jMexa-70" value="3" style="ellipse;whiteSpace=wrap;html=1;aspect=fixed;fontSize=25;" vertex="1" parent="1">
          <mxGeometry x="1904" y="520" width="60" height="60" as="geometry" />
        </mxCell>
        <mxCell id="LvxEn_jjEC13x24jMexa-71" value="4" style="ellipse;whiteSpace=wrap;html=1;aspect=fixed;fontSize=25;" vertex="1" parent="1">
          <mxGeometry x="1984" y="525" width="60" height="60" as="geometry" />
        </mxCell>
        <mxCell id="LvxEn_jjEC13x24jMexa-72" value="5" style="ellipse;whiteSpace=wrap;html=1;aspect=fixed;fontSize=25;" vertex="1" parent="1">
          <mxGeometry x="2054" y="525" width="60" height="60" as="geometry" />
        </mxCell>
        <mxCell id="LvxEn_jjEC13x24jMexa-73" value="6" style="ellipse;whiteSpace=wrap;html=1;aspect=fixed;fontSize=25;" vertex="1" parent="1">
          <mxGeometry x="2134" y="525" width="60" height="60" as="geometry" />
        </mxCell>
        <mxCell id="LvxEn_jjEC13x24jMexa-74" value="7" style="ellipse;whiteSpace=wrap;html=1;aspect=fixed;fontSize=25;" vertex="1" parent="1">
          <mxGeometry x="2214" y="525" width="60" height="60" as="geometry" />
        </mxCell>
        <mxCell id="LvxEn_jjEC13x24jMexa-75" value="" style="endArrow=classic;html=1;rounded=0;fontSize=25;entryX=0.5;entryY=0;entryDx=0;entryDy=0;" edge="1" parent="1" source="LvxEn_jjEC13x24jMexa-49" target="LvxEn_jjEC13x24jMexa-45">
          <mxGeometry width="50" height="50" relative="1" as="geometry">
            <mxPoint x="1754" y="420" as="sourcePoint" />
            <mxPoint x="1804" y="370" as="targetPoint" />
          </mxGeometry>
        </mxCell>
        <mxCell id="LvxEn_jjEC13x24jMexa-76" value="" style="endArrow=classic;html=1;rounded=0;fontSize=25;entryX=0.5;entryY=0;entryDx=0;entryDy=0;" edge="1" parent="1" source="LvxEn_jjEC13x24jMexa-49" target="LvxEn_jjEC13x24jMexa-68">
          <mxGeometry width="50" height="50" relative="1" as="geometry">
            <mxPoint x="2054" y="470" as="sourcePoint" />
            <mxPoint x="2104" y="420" as="targetPoint" />
          </mxGeometry>
        </mxCell>
        <mxCell id="LvxEn_jjEC13x24jMexa-77" value="" style="endArrow=classic;html=1;rounded=0;fontSize=25;exitX=0.289;exitY=0.954;exitDx=0;exitDy=0;exitPerimeter=0;entryX=0.326;entryY=-0.046;entryDx=0;entryDy=0;entryPerimeter=0;" edge="1" parent="1" source="LvxEn_jjEC13x24jMexa-49" target="LvxEn_jjEC13x24jMexa-69">
          <mxGeometry width="50" height="50" relative="1" as="geometry">
            <mxPoint x="2064" y="470" as="sourcePoint" />
            <mxPoint x="2114" y="420" as="targetPoint" />
          </mxGeometry>
        </mxCell>
        <mxCell id="LvxEn_jjEC13x24jMexa-78" value="" style="endArrow=classic;html=1;rounded=0;fontSize=25;entryX=0.363;entryY=0.009;entryDx=0;entryDy=0;entryPerimeter=0;exitX=0.363;exitY=0.972;exitDx=0;exitDy=0;exitPerimeter=0;" edge="1" parent="1" source="LvxEn_jjEC13x24jMexa-49" target="LvxEn_jjEC13x24jMexa-70">
          <mxGeometry width="50" height="50" relative="1" as="geometry">
            <mxPoint x="2024" y="420" as="sourcePoint" />
            <mxPoint x="2154" y="430" as="targetPoint" />
          </mxGeometry>
        </mxCell>
        <mxCell id="LvxEn_jjEC13x24jMexa-79" value="" style="endArrow=classic;html=1;rounded=0;fontSize=25;exitX=0.5;exitY=1;exitDx=0;exitDy=0;entryX=0.5;entryY=0;entryDx=0;entryDy=0;" edge="1" parent="1" source="LvxEn_jjEC13x24jMexa-49" target="LvxEn_jjEC13x24jMexa-71">
          <mxGeometry width="50" height="50" relative="1" as="geometry">
            <mxPoint x="2174" y="490" as="sourcePoint" />
            <mxPoint x="2224" y="440" as="targetPoint" />
          </mxGeometry>
        </mxCell>
        <mxCell id="LvxEn_jjEC13x24jMexa-80" value="" style="endArrow=classic;html=1;rounded=0;fontSize=25;" edge="1" parent="1" source="LvxEn_jjEC13x24jMexa-49" target="LvxEn_jjEC13x24jMexa-72">
          <mxGeometry width="50" height="50" relative="1" as="geometry">
            <mxPoint x="2224" y="470" as="sourcePoint" />
            <mxPoint x="2274" y="420" as="targetPoint" />
          </mxGeometry>
        </mxCell>
        <mxCell id="LvxEn_jjEC13x24jMexa-81" value="" style="endArrow=classic;html=1;rounded=0;fontSize=25;entryX=0.5;entryY=0;entryDx=0;entryDy=0;exitX=0.733;exitY=0.991;exitDx=0;exitDy=0;exitPerimeter=0;" edge="1" parent="1" source="LvxEn_jjEC13x24jMexa-49" target="LvxEn_jjEC13x24jMexa-73">
          <mxGeometry width="50" height="50" relative="1" as="geometry">
            <mxPoint x="2094" y="420" as="sourcePoint" />
            <mxPoint x="2244" y="420" as="targetPoint" />
          </mxGeometry>
        </mxCell>
        <mxCell id="LvxEn_jjEC13x24jMexa-82" value="" style="endArrow=classic;html=1;rounded=0;fontSize=25;exitX=1;exitY=1;exitDx=0;exitDy=0;entryX=0.5;entryY=0;entryDx=0;entryDy=0;" edge="1" parent="1" source="LvxEn_jjEC13x24jMexa-49" target="LvxEn_jjEC13x24jMexa-74">
          <mxGeometry width="50" height="50" relative="1" as="geometry">
            <mxPoint x="2194" y="470" as="sourcePoint" />
            <mxPoint x="2244" y="420" as="targetPoint" />
          </mxGeometry>
        </mxCell>
        <mxCell id="LvxEn_jjEC13x24jMexa-83" value="" style="endArrow=classic;html=1;rounded=0;fontSize=25;entryX=0;entryY=0;entryDx=0;entryDy=0;" edge="1" parent="1" source="LvxEn_jjEC13x24jMexa-49" target="LvxEn_jjEC13x24jMexa-67">
          <mxGeometry width="50" height="50" relative="1" as="geometry">
            <mxPoint x="2274" y="500" as="sourcePoint" />
            <mxPoint x="2324" y="450" as="targetPoint" />
          </mxGeometry>
        </mxCell>
        <mxCell id="LvxEn_jjEC13x24jMexa-84" value="" style="endArrow=classic;html=1;rounded=0;fontSize=25;entryX=0.308;entryY=0.046;entryDx=0;entryDy=0;entryPerimeter=0;" edge="1" parent="1" source="LvxEn_jjEC13x24jMexa-49" target="LvxEn_jjEC13x24jMexa-66">
          <mxGeometry width="50" height="50" relative="1" as="geometry">
            <mxPoint x="2384" y="500" as="sourcePoint" />
            <mxPoint x="2434" y="450" as="targetPoint" />
          </mxGeometry>
        </mxCell>
      </root>
    </mxGraphModel>
  </diagram>
</mxfile>
